<mxfile host="app.diagrams.net" modified="2023-11-10T03:14:33.061Z" agent="Mozilla/5.0 (Windows NT 10.0; Win64; x64) AppleWebKit/537.36 (KHTML, like Gecko) Chrome/119.0.0.0 Safari/537.36 Edg/119.0.0.0" etag="pY5Zs1TXAoEN9ixb5fpB" version="22.1.0" type="github">
  <diagram name="Page-1" id="bmRft0mrOb9mYa42iPWk">
    <mxGraphModel dx="746" dy="447" grid="1" gridSize="10" guides="1" tooltips="1" connect="1" arrows="1" fold="1" page="1" pageScale="1" pageWidth="850" pageHeight="1100" math="0" shadow="0">
      <root>
        <mxCell id="0" />
        <mxCell id="1" parent="0" />
        <mxCell id="wZNA2XbuI0h5sLvJPYpa-1" value="Start" style="rounded=1;whiteSpace=wrap;html=1;arcSize=50;" parent="1" vertex="1">
          <mxGeometry x="320" y="70" width="120" height="60" as="geometry" />
        </mxCell>
        <mxCell id="wZNA2XbuI0h5sLvJPYpa-3" value="Input employee week hour as variable &quot;wh&quot;" style="shape=parallelogram;perimeter=parallelogramPerimeter;whiteSpace=wrap;html=1;fixedSize=1;" parent="1" vertex="1">
          <mxGeometry x="320" y="280" width="120" height="60" as="geometry" />
        </mxCell>
        <mxCell id="wZNA2XbuI0h5sLvJPYpa-4" value="If wh &amp;gt; 40" style="rhombus;whiteSpace=wrap;html=1;" parent="1" vertex="1">
          <mxGeometry x="340" y="400" width="80" height="80" as="geometry" />
        </mxCell>
        <mxCell id="wZNA2XbuI0h5sLvJPYpa-5" value="" style="endArrow=classic;html=1;rounded=0;entryX=0.5;entryY=0;entryDx=0;entryDy=0;" parent="1" target="wZNA2XbuI0h5sLvJPYpa-4" edge="1">
          <mxGeometry width="50" height="50" relative="1" as="geometry">
            <mxPoint x="379.5" y="340" as="sourcePoint" />
            <mxPoint x="379.5" y="410" as="targetPoint" />
          </mxGeometry>
        </mxCell>
        <mxCell id="wZNA2XbuI0h5sLvJPYpa-6" value="Declare variable &quot;gaji&quot;" style="rounded=0;whiteSpace=wrap;html=1;" parent="1" vertex="1">
          <mxGeometry x="320" y="170" width="120" height="60" as="geometry" />
        </mxCell>
        <mxCell id="wZNA2XbuI0h5sLvJPYpa-7" value="" style="endArrow=classic;html=1;rounded=0;" parent="1" target="wZNA2XbuI0h5sLvJPYpa-6" edge="1">
          <mxGeometry width="50" height="50" relative="1" as="geometry">
            <mxPoint x="380" y="130" as="sourcePoint" />
            <mxPoint x="430" y="80" as="targetPoint" />
          </mxGeometry>
        </mxCell>
        <mxCell id="wZNA2XbuI0h5sLvJPYpa-8" value="" style="endArrow=classic;html=1;rounded=0;exitX=0.5;exitY=1;exitDx=0;exitDy=0;entryX=0.5;entryY=0;entryDx=0;entryDy=0;" parent="1" source="wZNA2XbuI0h5sLvJPYpa-6" target="wZNA2XbuI0h5sLvJPYpa-3" edge="1">
          <mxGeometry width="50" height="50" relative="1" as="geometry">
            <mxPoint x="370" y="280" as="sourcePoint" />
            <mxPoint x="420" y="260" as="targetPoint" />
          </mxGeometry>
        </mxCell>
        <mxCell id="wZNA2XbuI0h5sLvJPYpa-9" value="" style="endArrow=classic;html=1;rounded=0;" parent="1" target="wZNA2XbuI0h5sLvJPYpa-10" edge="1">
          <mxGeometry width="50" height="50" relative="1" as="geometry">
            <mxPoint x="340" y="439.38" as="sourcePoint" />
            <mxPoint x="280" y="439.38" as="targetPoint" />
            <Array as="points">
              <mxPoint x="240" y="440" />
            </Array>
          </mxGeometry>
        </mxCell>
        <mxCell id="wZNA2XbuI0h5sLvJPYpa-10" value="gaji = wh * 6000" style="rounded=0;whiteSpace=wrap;html=1;" parent="1" vertex="1">
          <mxGeometry x="180" y="510" width="120" height="60" as="geometry" />
        </mxCell>
        <mxCell id="wZNA2XbuI0h5sLvJPYpa-11" value="Yes" style="text;html=1;strokeColor=none;fillColor=none;align=center;verticalAlign=middle;whiteSpace=wrap;rounded=0;" parent="1" vertex="1">
          <mxGeometry x="270" y="410" width="60" height="30" as="geometry" />
        </mxCell>
        <mxCell id="wZNA2XbuI0h5sLvJPYpa-12" value="" style="endArrow=classic;html=1;rounded=0;entryX=0.5;entryY=0;entryDx=0;entryDy=0;" parent="1" target="wZNA2XbuI0h5sLvJPYpa-13" edge="1">
          <mxGeometry width="50" height="50" relative="1" as="geometry">
            <mxPoint x="420" y="440" as="sourcePoint" />
            <mxPoint x="500" y="440" as="targetPoint" />
            <Array as="points">
              <mxPoint x="500" y="440" />
            </Array>
          </mxGeometry>
        </mxCell>
        <mxCell id="wZNA2XbuI0h5sLvJPYpa-13" value="gaji =&lt;br&gt;40 * 6000 + (wh - 40) * 18000" style="rounded=0;whiteSpace=wrap;html=1;" parent="1" vertex="1">
          <mxGeometry x="440" y="510" width="120" height="60" as="geometry" />
        </mxCell>
        <mxCell id="wZNA2XbuI0h5sLvJPYpa-14" value="No" style="text;html=1;strokeColor=none;fillColor=none;align=center;verticalAlign=middle;whiteSpace=wrap;rounded=0;" parent="1" vertex="1">
          <mxGeometry x="425" y="410" width="60" height="30" as="geometry" />
        </mxCell>
        <mxCell id="wZNA2XbuI0h5sLvJPYpa-15" value="" style="endArrow=classic;html=1;rounded=0;entryX=0.5;entryY=0;entryDx=0;entryDy=0;" parent="1" target="wZNA2XbuI0h5sLvJPYpa-16" edge="1">
          <mxGeometry width="50" height="50" relative="1" as="geometry">
            <mxPoint x="240" y="570" as="sourcePoint" />
            <mxPoint x="330" y="620" as="targetPoint" />
            <Array as="points">
              <mxPoint x="240" y="600" />
              <mxPoint x="380" y="600" />
            </Array>
          </mxGeometry>
        </mxCell>
        <mxCell id="wZNA2XbuI0h5sLvJPYpa-16" value="print (gaji)" style="shape=parallelogram;perimeter=parallelogramPerimeter;whiteSpace=wrap;html=1;fixedSize=1;" parent="1" vertex="1">
          <mxGeometry x="320" y="660" width="120" height="60" as="geometry" />
        </mxCell>
        <mxCell id="wZNA2XbuI0h5sLvJPYpa-17" value="" style="endArrow=none;html=1;rounded=0;" parent="1" edge="1">
          <mxGeometry width="50" height="50" relative="1" as="geometry">
            <mxPoint x="380" y="600" as="sourcePoint" />
            <mxPoint x="500" y="570" as="targetPoint" />
            <Array as="points">
              <mxPoint x="500" y="600" />
            </Array>
          </mxGeometry>
        </mxCell>
        <mxCell id="wZNA2XbuI0h5sLvJPYpa-18" value="Ahmad Yaqdhan&lt;br&gt;2307411026&lt;br&gt;TI 1A" style="text;html=1;strokeColor=none;fillColor=none;align=center;verticalAlign=middle;whiteSpace=wrap;rounded=0;" parent="1" vertex="1">
          <mxGeometry x="485" y="160" width="145" height="30" as="geometry" />
        </mxCell>
        <mxCell id="wZNA2XbuI0h5sLvJPYpa-19" value="" style="endArrow=classic;html=1;rounded=0;" parent="1" target="wZNA2XbuI0h5sLvJPYpa-20" edge="1">
          <mxGeometry width="50" height="50" relative="1" as="geometry">
            <mxPoint x="379.47" y="720" as="sourcePoint" />
            <mxPoint x="379" y="780" as="targetPoint" />
          </mxGeometry>
        </mxCell>
        <mxCell id="wZNA2XbuI0h5sLvJPYpa-20" value="End" style="rounded=1;whiteSpace=wrap;html=1;arcSize=50;" parent="1" vertex="1">
          <mxGeometry x="320" y="770" width="120" height="60" as="geometry" />
        </mxCell>
      </root>
    </mxGraphModel>
  </diagram>
</mxfile>
